<mxfile host="app.diagrams.net" modified="2021-08-30T14:11:10.727Z" agent="5.0 (Windows NT 10.0; Win64; x64) AppleWebKit/537.36 (KHTML, like Gecko) Chrome/92.0.4515.159 Safari/537.36" etag="ayjIUi0Qs9Ixtj872BkD" version="14.9.7" type="github">
  <diagram id="afJgesGjIkHeWu574BpS" name="Page-1">
    <mxGraphModel dx="1422" dy="804" grid="1" gridSize="10" guides="1" tooltips="1" connect="1" arrows="1" fold="1" page="1" pageScale="1" pageWidth="850" pageHeight="1100" math="0" shadow="0">
      <root>
        <mxCell id="0" />
        <mxCell id="1" parent="0" />
        <mxCell id="g5NaqCkrt3CO6x17K2Q1-6" style="edgeStyle=orthogonalEdgeStyle;rounded=0;orthogonalLoop=1;jettySize=auto;html=1;exitX=0.5;exitY=1;exitDx=0;exitDy=0;entryX=0.583;entryY=-0.033;entryDx=0;entryDy=0;entryPerimeter=0;endArrow=none;endFill=0;startArrow=blockThin;startFill=1;" edge="1" parent="1" source="g5NaqCkrt3CO6x17K2Q1-1" target="g5NaqCkrt3CO6x17K2Q1-2">
          <mxGeometry relative="1" as="geometry" />
        </mxCell>
        <mxCell id="g5NaqCkrt3CO6x17K2Q1-9" style="edgeStyle=orthogonalEdgeStyle;rounded=0;orthogonalLoop=1;jettySize=auto;html=1;exitX=1;exitY=0.5;exitDx=0;exitDy=0;entryX=0;entryY=0.5;entryDx=0;entryDy=0;startArrow=none;startFill=0;endArrow=blockThin;endFill=1;" edge="1" parent="1" source="g5NaqCkrt3CO6x17K2Q1-1" target="g5NaqCkrt3CO6x17K2Q1-7">
          <mxGeometry relative="1" as="geometry" />
        </mxCell>
        <mxCell id="g5NaqCkrt3CO6x17K2Q1-1" value="State []" style="rounded=0;whiteSpace=wrap;html=1;" vertex="1" parent="1">
          <mxGeometry x="80" y="120" width="120" height="60" as="geometry" />
        </mxCell>
        <mxCell id="g5NaqCkrt3CO6x17K2Q1-2" value="markerOption" style="rounded=1;whiteSpace=wrap;html=1;" vertex="1" parent="1">
          <mxGeometry x="70" y="230" width="120" height="60" as="geometry" />
        </mxCell>
        <mxCell id="g5NaqCkrt3CO6x17K2Q1-3" value="markerOption" style="rounded=1;whiteSpace=wrap;html=1;" vertex="1" parent="1">
          <mxGeometry x="80" y="240" width="120" height="60" as="geometry" />
        </mxCell>
        <mxCell id="g5NaqCkrt3CO6x17K2Q1-4" value="markerOption" style="rounded=1;whiteSpace=wrap;html=1;" vertex="1" parent="1">
          <mxGeometry x="90" y="250" width="120" height="60" as="geometry" />
        </mxCell>
        <mxCell id="g5NaqCkrt3CO6x17K2Q1-5" value="markerOption" style="rounded=1;whiteSpace=wrap;html=1;" vertex="1" parent="1">
          <mxGeometry x="100" y="260" width="120" height="60" as="geometry" />
        </mxCell>
        <mxCell id="g5NaqCkrt3CO6x17K2Q1-7" value="render markers purely based on state" style="shape=process;whiteSpace=wrap;html=1;backgroundOutline=1;" vertex="1" parent="1">
          <mxGeometry x="270" y="120" width="120" height="60" as="geometry" />
        </mxCell>
      </root>
    </mxGraphModel>
  </diagram>
</mxfile>
